<?xml version="1.0" standalone="no"?>
<!DOCTYPE svg PUBLIC "-//W3C//DTD SVG 20010904//EN"
 "http://www.w3.org/TR/2001/REC-SVG-20010904/DTD/svg10.dtd">
<svg version="1.0" xmlns="http://www.w3.org/2000/svg"
 width="362.000000pt" height="362.000000pt" viewBox="0 0 362.000000 362.000000"
 preserveAspectRatio="xMidYMid meet">
<metadata>
Created by potrace 1.14, written by Peter Selinger 2001-2017
</metadata>
<g transform="translate(0.000000,362.000000) scale(0.100000,-0.100000)"
fill="#000000" stroke="none">
<path d="M30 1810 l0 -940 1780 0 1780 0 0 940 0 940 -1780 0 -1780 0 0 -940z
m3550 0 l0 -930 -1770 0 -1770 0 0 930 0 930 1770 0 1770 0 0 -930z"/>
<path d="M1917 2371 c-60 -13 -55 -21 14 -21 115 0 109 7 109 -137 l0 -125
-24 6 c-36 9 -75 -10 -87 -41 -10 -25 -5 -39 38 -122 46 -91 48 -97 48 -180 0
-68 -5 -94 -22 -126 -25 -48 -89 -112 -134 -135 l-32 -17 31 -6 c40 -8 108
-69 134 -121 11 -22 23 -66 26 -98 l5 -59 19 32 c17 27 18 38 8 83 -11 54 -25
80 -77 144 l-32 39 36 33 c115 109 137 256 60 413 -19 40 -37 80 -41 89 -7 22
30 58 60 58 39 0 45 20 42 146 l-3 119 -29 14 c-37 17 -99 22 -149 12z"/>
<path d="M1314 2362 c2 -4 -76 -7 -174 -7 -130 0 -182 -3 -191 -12 -10 -11 24
-13 174 -13 162 0 193 -3 240 -20 30 -11 63 -30 75 -43 74 -78 67 -252 -12
-315 l-23 -17 39 -25 c75 -47 107 -164 77 -275 -13 -49 -96 -133 -139 -142
-34 -6 -41 -23 -10 -23 44 0 109 -51 141 -110 8 -14 16 -56 19 -94 5 -66 6
-69 22 -53 9 10 20 36 23 60 9 58 -15 115 -71 167 l-45 42 34 24 c19 12 48 45
65 72 29 44 32 57 34 138 2 75 -1 95 -20 131 -12 22 -33 50 -47 61 -28 22 -32
48 -11 71 20 23 46 106 46 146 0 44 -33 132 -59 156 -31 29 -95 59 -130 62
-17 1 -31 5 -31 8 0 4 -7 10 -16 13 -8 3 -13 2 -10 -2z"/>
<path d="M223 2353 c-13 -2 -23 -9 -23 -14 0 -5 124 -9 305 -9 l305 0 0 -125
0 -125 -100 0 -100 0 1 -292 c1 -161 5 -360 8 -443 7 -148 7 -150 23 -115 27
59 48 312 48 583 l0 247 60 0 c33 0 62 0 65 0 3 0 18 6 34 14 l29 15 1 115 c3
167 29 155 -338 154 -163 0 -306 -2 -318 -5z"/>
<path d="M2518 2353 c-16 -2 -28 -9 -28 -14 0 -5 49 -9 110 -9 l110 0 0 -427
c0 -236 0 -495 0 -578 l0 -150 19 30 c35 54 51 282 51 721 0 300 -3 394 -13
408 -10 14 -32 18 -117 20 -58 2 -117 2 -132 -1z"/>
<path d="M2850 2347 c-20 -10 36 -13 283 -15 l307 -2 0 -125 0 -125 -100 0
-100 0 0 -247 c0 -137 3 -339 7 -450 5 -182 8 -200 20 -176 8 15 18 63 24 108
5 44 14 117 19 162 6 45 10 193 10 328 -1 136 1 249 4 252 3 3 37 5 75 4 103
-3 111 8 111 147 0 114 -3 122 -37 141 -31 16 -588 14 -623 -2z"/>
<path d="M1160 1638 c1 -438 2 -461 18 -433 12 22 16 56 17 125 1 52 2 157 3
233 l2 137 28 0 c35 0 72 10 72 20 0 4 -14 7 -32 6 -33 -1 -43 10 -30 32 7 10
16 10 38 2 27 -9 28 -9 10 5 -11 8 -35 15 -53 15 l-33 0 0 114 c0 113 0 114
25 120 14 4 25 11 25 17 0 6 -4 7 -10 4 -5 -3 -10 3 -10 14 0 11 5 23 11 27
17 10 -10 24 -48 24 l-33 0 0 -462z"/>
<path d="M223 2074 c10 -10 137 -13 137 -3 0 5 -32 9 -72 9 -39 0 -69 -3 -65
-6z"/>
<path d="M2860 2069 c28 -12 130 -9 130 3 0 4 -35 8 -77 7 -62 0 -73 -2 -53
-10z"/>
<path d="M2228 1960 c-58 -3 -110 -8 -114 -12 -4 -5 52 -8 124 -8 l132 0 0
-85 0 -85 -127 0 c-89 0 -123 -3 -113 -10 20 -13 247 -11 277 3 21 9 23 16 23
92 0 54 -4 86 -12 93 -19 14 -70 18 -190 12z"/>
<path d="M1625 1724 c23 -17 31 -17 70 0 29 13 28 13 -29 13 -52 0 -57 -2 -41
-13z"/>
<path d="M1798 1463 c7 -3 16 -2 19 1 4 3 -2 6 -13 5 -11 0 -14 -3 -6 -6z"/>
<path d="M630 1120 c10 -6 11 -10 3 -10 -7 0 -13 -7 -13 -15 0 -8 6 -15 13
-15 8 0 9 -3 1 -8 -14 -9 -24 -96 -13 -114 7 -10 9 -8 10 7 1 11 3 36 6 55 2
19 4 44 5 55 1 11 6 23 11 26 14 9 -1 29 -21 29 -15 0 -15 -2 -2 -10z"/>
<path d="M735 1120 c3 -5 1 -10 -4 -10 -6 0 -11 -7 -11 -15 0 -8 6 -15 13 -15
8 0 9 -3 1 -8 -14 -9 -25 -100 -13 -108 8 -4 14 44 10 70 -1 4 3 14 9 21 6 7
8 19 4 28 -3 8 0 18 5 22 13 7 5 25 -10 25 -6 0 -7 -4 -4 -10z"/>
<path d="M1775 1120 c3 -5 1 -10 -4 -10 -6 0 -11 -7 -11 -15 0 -8 6 -15 13
-15 8 0 9 -3 1 -8 -13 -8 -27 -112 -15 -112 11 0 24 67 16 79 -3 6 -1 13 5 16
6 4 8 15 5 25 -3 10 -1 21 5 25 12 7 4 25 -11 25 -6 0 -7 -4 -4 -10z"/>
<path d="M290 1111 c0 -5 5 -13 10 -16 6 -3 10 -2 10 4 0 5 -4 13 -10 16 -5 3
-10 2 -10 -4z"/>
<path d="M809 1107 c-2 -6 -2 -46 1 -87 4 -61 6 -69 13 -45 14 56 0 184 -14
132z"/>
<path d="M1287 1102 c2 -10 -3 -24 -11 -32 -13 -10 -14 -16 -5 -26 10 -12 14
-10 26 12 7 15 11 35 8 46 -8 23 -25 24 -18 0z"/>
<path d="M1510 1107 c27 -15 36 -14 25 2 -3 6 -16 11 -28 11 -21 0 -21 -1 3
-13z"/>
<path d="M2610 1111 c0 -5 7 -11 15 -15 22 -8 20 -82 -2 -95 -17 -9 -17 -11 1
-28 18 -17 18 -17 12 3 -4 13 -1 26 9 34 18 15 19 40 4 74 -12 25 -39 44 -39
27z"/>
<path d="M3190 1113 c0 -4 5 -15 10 -23 8 -13 10 -13 10 2 0 9 -4 20 -10 23
-5 3 -10 3 -10 -2z"/>
<path d="M1245 1100 c-3 -5 -3 -15 1 -21 6 -11 23 6 24 24 0 10 -18 9 -25 -3z"/>
<path d="M250 1085 c0 -8 10 -20 23 -26 33 -18 38 -31 21 -56 -8 -13 -10 -23
-4 -23 5 0 10 -7 10 -17 0 -29 7 -10 14 38 6 42 5 46 -20 57 -17 8 -24 18 -20
27 3 9 0 15 -9 15 -8 0 -15 -7 -15 -15z"/>
<path d="M385 1090 c-3 -5 1 -10 9 -10 9 0 16 5 16 10 0 6 -4 10 -9 10 -6 0
-13 -4 -16 -10z"/>
<path d="M1480 1085 c0 -9 11 -21 25 -27 27 -12 34 -45 13 -66 -9 -9 -9 -12 0
-12 7 0 12 -7 12 -15 0 -8 3 -15 8 -15 4 0 8 23 9 50 3 46 1 51 -23 60 -17 7
-24 15 -20 25 3 9 0 15 -9 15 -8 0 -15 -7 -15 -15z"/>
<path d="M1850 1090 c0 -5 7 -10 15 -10 8 0 15 5 15 10 0 6 -7 10 -15 10 -8 0
-15 -4 -15 -10z"/>
<path d="M2570 1050 c0 -38 4 -50 15 -50 8 0 15 5 15 11 0 5 -4 7 -10 4 -13
-8 -8 68 5 77 6 4 2 8 -7 8 -15 0 -18 -9 -18 -50z"/>
<path d="M3142 1088 c-26 -26 -8 -88 25 -88 8 0 6 7 -7 20 -21 21 -18 46 8 68
14 10 14 12 1 12 -8 0 -20 -5 -27 -12z"/>
<path d="M508 1080 c19 -8 22 -16 22 -71 0 -75 10 -72 16 5 4 47 2 57 -15 66
-11 5 -26 10 -33 9 -7 0 -3 -4 10 -9z"/>
<path d="M933 1079 c13 -8 17 -23 17 -71 0 -70 11 -71 18 -3 4 46 -15 85 -42
85 -6 0 -3 -5 7 -11z"/>
<path d="M1048 1083 c7 -3 16 -2 19 1 4 3 -2 6 -13 5 -11 0 -14 -3 -6 -6z"/>
<path d="M1085 1080 c3 -5 2 -10 -4 -10 -6 0 -8 -6 -5 -13 6 -16 -12 -33 -41
-40 -16 -4 -16 -5 5 -6 14 0 30 3 36 7 17 10 28 72 14 72 -6 0 -8 -4 -5 -10z"/>
<path d="M1653 1079 c20 -12 24 -75 5 -81 -9 -3 -7 -10 7 -24 16 -16 18 -17
12 -2 -3 10 -2 20 3 23 19 11 11 74 -9 85 -25 13 -42 13 -18 -1z"/>
<path d="M2001 1075 c1 -11 5 -31 9 -45 8 -24 8 -24 9 5 0 17 -4 37 -9 45 -8
12 -10 11 -9 -5z"/>
<path d="M2163 1079 c13 -8 17 -24 18 -72 1 -46 3 -56 9 -37 20 61 3 121 -33
120 -7 0 -4 -5 6 -11z"/>
<path d="M2262 1026 c-3 -71 13 -93 16 -23 2 25 9 47 19 55 14 10 15 14 3 25
-10 9 -12 9 -6 0 4 -8 1 -13 -8 -13 -8 0 -16 5 -18 11 -2 6 -5 -18 -6 -55z"/>
<path d="M2408 1078 c22 -22 14 -48 -14 -48 -26 0 -30 -20 -4 -28 7 -3 10 0 6
7 -5 7 2 11 17 11 14 0 27 6 30 14 6 16 -19 56 -36 56 -8 0 -8 -3 1 -12z"/>
<path d="M2759 1077 c7 -9 11 -26 8 -38 -4 -15 -2 -19 10 -15 8 3 16 6 18 6
12 0 -12 43 -29 52 -19 10 -20 10 -7 -5z"/>
<path d="M3318 1079 c6 -7 12 -27 12 -45 0 -18 -6 -34 -12 -37 -9 -3 -8 -10 6
-23 17 -17 18 -17 13 -2 -3 10 -2 20 3 23 6 4 10 22 10 40 0 25 -6 37 -22 46
-19 9 -21 9 -10 -2z"/>
<path d="M398 1073 c-23 -6 -24 -59 -2 -71 11 -6 13 -11 5 -16 -6 -4 -11 -13
-11 -19 1 -7 9 -1 20 11 18 21 18 25 4 39 -13 14 -13 18 1 39 16 24 14 25 -17
17z"/>
<path d="M892 1012 c-2 -75 12 -68 20 10 4 32 1 48 -7 52 -8 3 -12 -15 -13
-62z"/>
<path d="M1868 1073 c-22 -6 -25 -61 -3 -69 12 -5 12 -10 -2 -32 l-17 -27 27
24 c24 22 25 26 12 41 -19 21 -19 29 2 52 16 18 13 20 -19 11z"/>
<path d="M1950 1058 c0 -15 5 -30 10 -33 13 -8 13 25 0 45 -8 12 -10 9 -10
-12z"/>
<path d="M2038 1030 c-14 -43 -14 -51 -1 -67 10 -13 13 -14 10 -3 -2 8 2 35 9
60 16 53 17 60 6 60 -5 0 -15 -22 -24 -50z"/>
<path d="M2853 1043 c10 -32 13 -34 15 -15 4 28 -4 52 -17 52 -5 0 -4 -16 2
-37z"/>
<path d="M2907 1073 c-4 -7 -14 -30 -21 -52 -13 -34 -13 -42 0 -58 14 -17 14
-17 12 7 -1 14 3 39 11 57 13 33 12 68 -2 46z"/>
<path d="M482 1058 c2 -6 10 -14 16 -16 7 -2 10 2 6 12 -7 18 -28 22 -22 4z"/>
<path d="M1030 1050 c0 -11 5 -20 10 -20 6 0 10 9 10 20 0 11 -4 20 -10 20 -5
0 -10 -9 -10 -20z"/>
<path d="M1614 1056 c-8 -20 -1 -49 12 -53 7 -2 10 6 6 23 -3 16 1 29 9 35 11
7 10 9 -4 9 -10 0 -20 -6 -23 -14z"/>
<path d="M2377 1063 c-12 -11 -8 -23 8 -23 8 0 15 7 15 15 0 16 -12 20 -23 8z"/>
<path d="M2727 1063 c-11 -11 -8 -23 6 -23 8 0 14 7 14 15 0 16 -9 19 -20 8z"/>
<path d="M3274 1056 c-8 -20 -1 -49 11 -53 6 -2 10 13 10 32 0 36 -11 47 -21
21z"/>
<path d="M1313 1040 c-7 -17 -7 -29 -1 -37 7 -9 7 -18 -2 -28 -16 -19 -3 -20
16 -1 10 11 12 24 5 53 -8 37 -8 38 -18 13z"/>
<path d="M1236 1038 c-10 -21 0 -38 22 -38 11 0 13 3 6 8 -7 4 -14 16 -16 27
-4 18 -6 18 -12 3z"/>
<path d="M1976 1015 c-4 -14 -2 -33 3 -43 8 -14 11 -14 11 -2 1 8 3 25 6 37 5
31 -13 38 -20 8z"/>
<path d="M480 1015 c0 -8 4 -15 9 -15 5 0 11 7 15 15 3 9 0 15 -9 15 -8 0 -15
-7 -15 -15z"/>
<path d="M2130 1015 c0 -8 4 -15 9 -15 5 0 11 7 15 15 3 9 0 15 -9 15 -8 0
-15 -7 -15 -15z"/>
<path d="M2722 1018 c6 -18 25 -21 25 -3 0 8 -7 15 -14 15 -8 0 -13 -5 -11
-12z"/>
<path d="M240 1009 c0 -5 9 -9 20 -9 11 0 20 2 20 4 0 2 -9 6 -20 9 -11 3 -20
1 -20 -4z"/>
<path d="M1470 1009 c0 -5 9 -9 20 -9 11 0 20 2 20 4 0 2 -9 6 -20 9 -11 3
-20 1 -20 -4z"/>
<path d="M2971 1013 c0 -6 -4 -20 -7 -30 -5 -14 -4 -15 5 -7 7 7 11 20 8 30
-3 11 -5 14 -6 7z"/>
<path d="M3193 1001 c-10 -15 -9 -20 2 -25 11 -4 15 2 15 19 0 30 -2 31 -17 6z"/>
<path d="M1078 989 c-2 -15 -12 -26 -28 -31 -21 -6 -19 -7 10 -5 36 2 53 28
32 49 -7 7 -11 3 -14 -13z"/>
<path d="M2417 1004 c-8 -8 1 -24 14 -24 5 0 9 7 9 15 0 15 -12 20 -23 9z"/>
<path d="M2767 1004 c-9 -9 4 -35 14 -28 5 3 9 12 9 20 0 14 -12 19 -23 8z"/>
<path d="M3417 996 c-4 -10 -5 -21 -2 -24 9 -9 17 6 13 25 -3 17 -4 17 -11 -1z"/>
<path d="M1027 994 c-8 -9 1 -24 14 -24 6 0 8 4 5 9 -4 5 0 12 6 14 9 4 8 6
-3 6 -9 1 -19 -2 -22 -5z"/>
<path d="M1275 990 c-3 -5 -2 -10 4 -10 5 0 13 5 16 10 3 6 2 10 -4 10 -5 0
-13 -4 -16 -10z"/>
<path d="M1235 970 c-3 -6 1 -7 9 -4 18 7 21 14 7 14 -6 0 -13 -4 -16 -10z"/>
<path d="M1617 973 c-4 -3 -7 -11 -7 -17 0 -6 5 -5 12 2 6 6 9 14 7 17 -3 3
-9 2 -12 -2z"/>
<path d="M2560 970 c0 -5 5 -10 11 -10 5 0 7 5 4 10 -3 6 -8 10 -11 10 -2 0
-4 -4 -4 -10z"/>
<path d="M2725 970 c-3 -6 1 -7 9 -4 18 7 21 14 7 14 -6 0 -13 -4 -16 -10z"/>
<path d="M3275 969 c-4 -6 -5 -12 -2 -15 2 -3 7 2 10 11 7 17 1 20 -8 4z"/>
</g>
</svg>
